<svg id="calendar" xmlns="http://www.w3.org/2000/svg" width="22.883" height="25.171" viewBox="0 0 22.883 25.171">
  <path id="Path_524" data-name="Path 524" d="M22.45,27.383H6.432A3.371,3.371,0,0,1,3,23.95V7.932A3.371,3.371,0,0,1,6.432,4.5H22.45a3.371,3.371,0,0,1,3.432,3.432V23.95A3.371,3.371,0,0,1,22.45,27.383ZM6.432,6.788A1.081,1.081,0,0,0,5.288,7.932V23.95a1.081,1.081,0,0,0,1.144,1.144H22.45a1.081,1.081,0,0,0,1.144-1.144V7.932A1.081,1.081,0,0,0,22.45,6.788Z" transform="translate(-3 -2.212)" fill="#ccd1d9"/>
  <path id="Path_525" data-name="Path 525" d="M19.018,8.365a1.081,1.081,0,0,1-1.144-1.144V2.644a1.144,1.144,0,1,1,2.288,0V7.221A1.081,1.081,0,0,1,19.018,8.365Zm-9.153,0A1.081,1.081,0,0,1,8.721,7.221V2.644A1.081,1.081,0,0,1,9.865,1.5a1.081,1.081,0,0,1,1.144,1.144V7.221A1.081,1.081,0,0,1,9.865,8.365Zm14.874,4.577H4.144A1.081,1.081,0,0,1,3,11.8a1.081,1.081,0,0,1,1.144-1.144H24.738A1.081,1.081,0,0,1,25.883,11.8,1.081,1.081,0,0,1,24.738,12.941Z" transform="translate(-3 -1.5)" fill="#ccd1d9"/>
</svg>
