<svg xmlns="http://www.w3.org/2000/svg" width="28.052" height="28.052" viewBox="0 0 28.052 28.052">
  <g id="log-out" transform="translate(-3 -3)">
    <path id="Path_532" data-name="Path 532" d="M12.818,31.052H7.208A4.133,4.133,0,0,1,3,26.844V7.208A4.133,4.133,0,0,1,7.208,3h5.61a1.325,1.325,0,0,1,1.4,1.4,1.325,1.325,0,0,1-1.4,1.4H7.208a1.325,1.325,0,0,0-1.4,1.4V26.844a1.325,1.325,0,0,0,1.4,1.4h5.61a1.4,1.4,0,1,1,0,2.805Zm9.818-5.61a1.273,1.273,0,0,1-.982-.421,1.356,1.356,0,0,1,0-1.964l6.031-6.031-6.031-6.031a1.389,1.389,0,0,1,1.964-1.964l7.013,7.013a1.356,1.356,0,0,1,0,1.964l-7.013,7.013A1.273,1.273,0,0,1,22.637,25.442Z" fill="#ccd1d9"/>
    <path id="Path_533" data-name="Path 533" d="M30.234,19.305H13.4a1.4,1.4,0,1,1,0-2.805H30.234a1.4,1.4,0,1,1,0,2.805Z" transform="translate(-0.584 -0.877)" fill="#ccd1d9"/>
  </g>
</svg>
