<svg id="Logo" xmlns="http://www.w3.org/2000/svg" width="219.497" height="30.019" viewBox="0 0 219.497 30.019">
  <path id="Path_534" data-name="Path 534" d="M1173.652,274.155a1.916,1.916,0,1,1-1.916-1.915,1.916,1.916,0,0,1,1.916,1.915" transform="translate(-1057.297 -246.054)" fill="#002657"/>
  <path id="Path_535" data-name="Path 535" d="M999.907,111.709a1.779,1.779,0,1,1-1.778-1.779,1.779,1.779,0,0,1,1.778,1.779" transform="translate(-900.513 -99.356)" fill="#00a978"/>
  <path id="Path_536" data-name="Path 536" d="M634.037,111.709a1.779,1.779,0,1,1-1.779-1.779,1.779,1.779,0,0,1,1.779,1.779" transform="translate(-569.835 -99.356)" fill="#00a978"/>
  <path id="Path_537" data-name="Path 537" d="M1330.094,121.355c.212-2.432,1.4-3.515,3.144-3.515,1.427,0,2.247.555,2.247,1.612,0,.687-.5,1.11-1.427,1.269Zm7.214,6.554a.274.274,0,0,0,.212-.37l-.529-1.982a.273.273,0,0,0-.369-.212l-1.163.29a7.17,7.17,0,0,1-2.088.265,2.8,2.8,0,0,1-3.012-2.273l4.149-.634c2.642-.4,3.884-1.559,3.884-3.595,0-2.616-1.928-4.2-5.1-4.2-3.858,0-6.131,2.563-6.131,6.686,0,4.1,2.246,6.686,6.237,6.686a11.1,11.1,0,0,0,2.7-.343Zm-11.664-12.421a.264.264,0,0,0-.29-.29,4.913,4.913,0,0,0-4.176,2.087c-.239.264-.37.211-.529-.08l-.423-1.506a.322.322,0,0,0-.343-.239h-1.321a.265.265,0,0,0-.292.291v12.235a.265.265,0,0,0,.292.29h2.352a.264.264,0,0,0,.29-.29v-3.144c0-4.862,1.269-6.872,4.149-7a.265.265,0,0,0,.29-.291v-2.059Zm-13.637,7.321v.185c0,1.956-1.136,2.987-3.223,2.987-1.269,0-1.982-.635-1.982-1.665,0-.9.608-1.506,1.9-1.506Zm-6.738-6.925a.274.274,0,0,0-.212.37l.581,1.955a.273.273,0,0,0,.369.212l.951-.29a7.231,7.231,0,0,1,2.061-.265c1.956,0,2.987.872,2.987,2.485v.159h-3.3c-3.119,0-4.81,1.585-4.81,4.07s1.639,3.991,4.572,3.991a4.655,4.655,0,0,0,3.621-1.4c.343-.317.5-.317.661.053l.212.82a.321.321,0,0,0,.344.238h1.321a.264.264,0,0,0,.291-.29v-7.743c0-3.2-2.193-5.047-5.76-5.047a9.821,9.821,0,0,0-2.881.4Zm-3.093-.1c.079-.185-.027-.317-.239-.317h-2.379a.322.322,0,0,0-.344.239l-1.348,4.625c-.449,1.745-.713,2.907-.951,4.228-.053.291-.344.291-.423,0-.29-1.322-.766-2.987-1.269-4.678l-1.4-4.176a.312.312,0,0,0-.318-.239h-1.585a.312.312,0,0,0-.318.239l-1.4,4.176c-.476,1.718-.952,3.356-1.269,4.678-.08.291-.37.291-.423,0-.239-1.322-.5-2.536-.952-4.228l-1.348-4.625a.321.321,0,0,0-.344-.239h-2.379c-.211,0-.316.133-.238.317l2.167,7.32c.608,2.114.977,3.356,1.348,4.915a.279.279,0,0,0,.317.264h2.934a.278.278,0,0,0,.317-.264c.212-.872.5-1.8.792-2.748l.925-2.8a18.855,18.855,0,0,0,.475-1.93c.079-.316.291-.343.37,0,.106.529.317,1.4.476,1.93l.951,2.8c.264.951.555,1.877.793,2.775a.277.277,0,0,0,.317.238h2.906a.279.279,0,0,0,.317-.264c.369-1.559.741-2.828,1.348-4.915Zm-24.391,2.3h2.96a.264.264,0,0,0,.291-.29v-2.034a.265.265,0,0,0-.291-.291h-2.96v-3.911c0-.212-.133-.291-.343-.239l-2.352.793a.312.312,0,0,0-.239.317v3.039h-5.682v-1.823c0-1.216.581-1.93,1.533-1.93a2.619,2.619,0,0,1,.845.106l.133.053a.272.272,0,0,0,.369-.211l.608-1.93a.274.274,0,0,0-.212-.37l-.212-.053a6.008,6.008,0,0,0-1.532-.265c-2.8,0-4.466,1.718-4.466,4.6v1.823h-1.295a.264.264,0,0,0-.29.291v2.034a.264.264,0,0,0,.29.29h1.295v9.91a.264.264,0,0,0,.29.29h2.352a.264.264,0,0,0,.291-.29v-9.909h5.682V124.5c0,2.563,1.453,4.07,3.964,4.07a3.929,3.929,0,0,0,1.8-.449.286.286,0,0,0,.132-.4l-.846-1.8c-.079-.186-.212-.212-.4-.133a1.956,1.956,0,0,1-.687.106c-.635,0-1.031-.5-1.031-1.4v-6.422Zm-21.273-.239c1.956,0,3.172,1.506,3.172,4.017,0,2.536-1.216,4.043-3.172,4.043-2.008,0-3.2-1.506-3.2-4.043,0-2.511,1.189-4.017,3.2-4.017m0-2.642c-3.779,0-6.1,2.59-6.1,6.66,0,4.123,2.326,6.712,6.1,6.712,3.752,0,6.077-2.589,6.077-6.712,0-4.071-2.325-6.66-6.077-6.66m-12.448,8.087c.873.264,1.243.661,1.243,1.295,0,.82-.741,1.322-2.035,1.322a13.691,13.691,0,0,1-3.382-.449l-.951-.264a.259.259,0,0,0-.343.185l-.608,1.982a.273.273,0,0,0,.211.369l1.03.291a14.809,14.809,0,0,0,4.043.555c3.119,0,4.968-1.506,4.968-3.991,0-1.9-1.03-3.091-3.329-3.672l-2.643-.687c-.818-.238-1.189-.608-1.189-1.216,0-.714.714-1.163,1.928-1.163a10.2,10.2,0,0,1,2.563.316l1.164.317a.273.273,0,0,0,.369-.212l.555-1.982a.273.273,0,0,0-.212-.369l-1.163-.29a13.122,13.122,0,0,0-3.277-.423c-3.065,0-4.835,1.427-4.835,3.805,0,1.9,1.03,3.04,3.223,3.594Z" transform="translate(-1118.894 -98.552)" fill="#002657"/>
  <path id="Path_538" data-name="Path 538" d="M361.546,115.472V111.56c0-.211-.133-.29-.343-.238l-2.352.794a.31.31,0,0,0-.238.316v3.04h-1.295a.264.264,0,0,0-.29.29V117.8a.265.265,0,0,0,.29.291h1.295v6.422c0,2.563,1.453,4.07,3.964,4.07a3.925,3.925,0,0,0,1.8-.449.284.284,0,0,0,.132-.4l-.845-1.8c-.079-.185-.212-.211-.4-.132a1.98,1.98,0,0,1-.687.106c-.635,0-1.03-.5-1.03-1.4v-6.422h2.96a.265.265,0,0,0,.291-.291v-2.034a.264.264,0,0,0-.291-.29h-2.961Zm-7.4.29a.264.264,0,0,0-.29-.29h-3.938a.264.264,0,0,0-.29.29V117.8a.265.265,0,0,0,.29.291h1.3V128a.264.264,0,0,0,.291.291h2.352a.264.264,0,0,0,.29-.291Zm-15.009,5.6c.212-2.432,1.4-3.515,3.144-3.515,1.426,0,2.246.555,2.246,1.612,0,.688-.5,1.11-1.427,1.269Zm7.214,6.553a.273.273,0,0,0,.212-.369l-.529-1.982a.274.274,0,0,0-.37-.212l-1.163.29a7.164,7.164,0,0,1-2.087.265,2.8,2.8,0,0,1-3.013-2.273l4.149-.635c2.642-.4,3.885-1.559,3.885-3.594,0-2.616-1.93-4.2-5.1-4.2-3.858,0-6.131,2.563-6.131,6.686,0,4.1,2.246,6.686,6.237,6.686a11.052,11.052,0,0,0,2.7-.344Zm-20.935-18.286a.264.264,0,0,0-.29-.29h-2.352a.264.264,0,0,0-.291.29V128a.264.264,0,0,0,.291.29h2.352a.264.264,0,0,0,.29-.29v-6.157c.027-2.3.951-3.991,3.091-3.991,1.427,0,2.3.978,2.3,2.669V128a.264.264,0,0,0,.291.29h2.352a.264.264,0,0,0,.29-.29v-7.8c0-3.118-1.824-5-4.836-5a4.418,4.418,0,0,0-3.486,1.491c0-.25,0-1.94,0-3.209v-3.859Zm-6.473,6.13a.264.264,0,0,0-.29-.29h-3.938a.265.265,0,0,0-.291.29V117.8a.265.265,0,0,0,.291.291h1.295V128a.264.264,0,0,0,.29.291h2.352a.264.264,0,0,0,.29-.291V115.761Zm-15.01,5.6c.212-2.432,1.4-3.515,3.144-3.515,1.426,0,2.246.555,2.246,1.612,0,.688-.5,1.11-1.426,1.269Zm7.214,6.553a.273.273,0,0,0,.212-.369l-.528-1.982a.274.274,0,0,0-.37-.212l-1.163.29a7.164,7.164,0,0,1-2.087.265,2.8,2.8,0,0,1-3.013-2.273l4.149-.635c2.643-.4,3.885-1.559,3.885-3.594,0-2.616-1.93-4.2-5.1-4.2-3.858,0-6.131,2.563-6.131,6.686,0,4.1,2.246,6.686,6.237,6.686a11.065,11.065,0,0,0,2.7-.344ZM299.794,115.5a.264.264,0,0,0-.29-.29,4.914,4.914,0,0,0-4.176,2.087c-.239.264-.37.212-.529-.079l-.422-1.506a.322.322,0,0,0-.344-.238h-1.322a.264.264,0,0,0-.29.29V128a.264.264,0,0,0,.29.29h2.352a.264.264,0,0,0,.29-.29v-3.145c0-4.862,1.269-6.871,4.149-7a.264.264,0,0,0,.291-.29V115.5Zm-16.358-.026h-1.295a.265.265,0,0,0-.291.29V117.8a.265.265,0,0,0,.291.291h1.295V128a.264.264,0,0,0,.29.29h2.352a.264.264,0,0,0,.291-.29v-9.91h2.96a.265.265,0,0,0,.29-.291v-2.034a.264.264,0,0,0-.29-.29h-2.96v-1.718c0-1.269.634-2.035,1.664-2.035a2.6,2.6,0,0,1,1,.186l.423.132a.259.259,0,0,0,.343-.186l.635-1.955a.3.3,0,0,0-.185-.37l-.476-.159a5,5,0,0,0-1.744-.316c-2.88,0-4.6,1.77-4.6,4.7Z" transform="translate(-254.739 -98.561)" fill="#00aa78"/>
  <path id="Path_539" data-name="Path 539" d="M1.917,25.438A1.458,1.458,0,0,1,.46,23.981v-3a4.465,4.465,0,0,1,4.46-4.46h6.007a1.547,1.547,0,1,0,0-3.093h-4.5a4.46,4.46,0,0,1,0-8.92h6.006a1.548,1.548,0,0,0,1.547-1.547v-1.5a1.457,1.457,0,1,1,2.915,0v1.5a4.465,4.465,0,0,1-4.46,4.46H6.423a1.547,1.547,0,0,0,0,3.093h4.5a4.46,4.46,0,0,1,0,8.92H4.92A1.548,1.548,0,0,0,3.375,20.98v3A1.457,1.457,0,0,1,1.917,25.438Z" transform="translate(-0.416)" fill="#00aa78"/>
  <path id="Path_540" data-name="Path 540" d="M3,282.042a1.5,1.5,0,1,1-1.5-1.5,1.5,1.5,0,0,1,1.5,1.5" transform="translate(0 -253.555)" fill="#002657"/>
</svg>
