<svg id="Logo" xmlns="http://www.w3.org/2000/svg" width="49.001" height="89.201" viewBox="0 0 49.001 89.201">
  <path id="Path_1" data-name="Path 1" d="M7.313,75.667A4.333,4.333,0,0,1,2.98,71.333V62.4A13.282,13.282,0,0,1,16.246,49.132H34.114a4.6,4.6,0,0,0,0-9.2h-13.4a13.267,13.267,0,1,1,0-26.534H38.579a4.606,4.606,0,0,0,4.6-4.6V4.333a4.333,4.333,0,0,1,8.667,0V8.8A13.282,13.282,0,0,1,38.579,22.067H20.714a4.6,4.6,0,1,0,0,9.2h13.4a13.267,13.267,0,0,1,0,26.534H16.246a4.6,4.6,0,0,0-4.6,4.6v8.934A4.334,4.334,0,0,1,7.313,75.667Z" transform="translate(-2.847)" fill="#00aa78"/>
  <path id="Path_2" data-name="Path 2" d="M8.933,1804.147a4.467,4.467,0,1,1-4.466-4.467,4.467,4.467,0,0,1,4.466,4.467" transform="translate(0 -1719.413)" fill="#002657"/>
</svg>
