<svg xmlns="http://www.w3.org/2000/svg" width="25.883" height="23.274" viewBox="0 0 25.883 23.274">
  <g id="_2" data-name="2" transform="translate(-1.996 -2.996)">
    <path id="Path_3" data-name="Path 3" d="M5.211,3.376A1.3,1.3,0,1,0,3.376,5.211l7.276,7.276a4.523,4.523,0,0,0,6.126,6.125l7.276,7.276a1.3,1.3,0,1,0,1.835-1.835Zm9.421,13.194a1.938,1.938,0,0,1-1.938-1.938v-.09l2.016,2.016Z" transform="translate(0.292)" fill="#c4c4ca"/>
    <path id="Path_4" data-name="Path 4" d="M15.209,19.669c-5.557.129-9.2-4.639-10.338-6.461A17.7,17.7,0,0,1,7.765,9.692L5.878,7.87a20.536,20.536,0,0,0-3.709,4.691,1.292,1.292,0,0,0,0,1.292c.814,1.409,5.169,8.4,12.781,8.4h.323a12.249,12.249,0,0,0,4.174-.866l-2.042-2.042A10,10,0,0,1,15.209,19.669Z" transform="translate(0 1.425)" fill="#c4c4ca"/>
    <path id="Path_5" data-name="Path 5" d="M25.778,13.4c-.827-1.434-5.389-8.633-13.1-8.4A12.252,12.252,0,0,0,8.5,5.867l2.042,2.042a10,10,0,0,1,2.2-.323c5.544-.142,9.188,4.639,10.338,6.462a17.707,17.707,0,0,1-2.959,3.515l1.951,1.822a20.536,20.536,0,0,0,3.761-4.691,1.292,1.292,0,0,0-.052-1.292Z" transform="translate(1.901 0.584)" fill="#c4c4ca"/>
  </g>
</svg>
